<?xml version="1.0" standalone="no"?>
<!DOCTYPE svg PUBLIC "-//W3C//DTD SVG 20010904//EN"
 "http://www.w3.org/TR/2001/REC-SVG-20010904/DTD/svg10.dtd">
<svg version="1.0" xmlns="http://www.w3.org/2000/svg"
 width="400.000000pt" height="400.000000pt" viewBox="0 0 400.000000 400.000000"
 preserveAspectRatio="xMidYMid meet">

<g transform="translate(0.000000,400.000000) scale(0.100000,-0.100000)"
fill="#000000" stroke="none">
<path d="M1495 3984 c-27 -9 -81 -25 -120 -36 -164 -49 -381 -150 -494 -231
-28 -21 -54 -37 -57 -37 -8 0 -145 -113 -168 -139 -11 -11 -24 -21 -31 -21 -6
0 -46 -37 -89 -82 -42 -46 -91 -97 -107 -114 -17 -16 -36 -40 -42 -51 -7 -12
-37 -55 -67 -95 -62 -82 -75 -102 -92 -138 -7 -14 -25 -44 -41 -68 -15 -23
-33 -57 -39 -75 -9 -28 -34 -86 -60 -140 -7 -15 -33 -95 -79 -243 -5 -17 -9
-56 -9 -86 0 -49 3 -59 26 -77 27 -21 32 -21 867 -21 l840 0 -352 -355 -351
-355 0 -267 0 -267 27 -28 27 -28 980 0 981 0 -56 -53 c-73 -67 -183 -152
-245 -189 -78 -46 -254 -128 -274 -128 -7 0 -26 -6 -43 -14 -39 -18 -126 -36
-170 -36 -18 0 -39 -6 -45 -12 -17 -17 -432 -18 -453 -2 -8 6 -48 17 -89 24
-41 7 -79 16 -85 20 -5 5 -30 13 -55 20 -93 24 -365 174 -414 229 -11 12 -25
21 -32 21 -13 0 -234 228 -234 242 0 4 -16 31 -36 59 -20 28 -44 65 -53 82
-10 18 -22 41 -28 52 -60 111 -116 259 -129 345 -4 25 -12 51 -18 59 -7 9 -12
91 -13 238 -1 219 -2 226 -24 249 l-22 24 -264 0 -263 0 0 -384 c0 -246 4
-387 10 -391 6 -3 10 -15 10 -25 0 -20 52 -184 69 -218 4 -9 37 -75 72 -147
69 -141 127 -238 198 -328 62 -78 221 -257 229 -257 4 0 57 -43 117 -95 61
-52 114 -95 119 -95 5 0 17 -6 25 -14 25 -22 96 -62 231 -129 180 -89 242
-113 400 -153 93 -23 104 -24 526 -24 346 0 441 3 480 14 27 8 90 27 139 41
99 29 110 34 270 108 116 55 124 59 222 125 34 23 65 42 68 42 22 0 415 363
415 383 0 4 21 34 46 65 26 31 49 64 52 72 3 8 22 38 42 65 46 62 190 355 190
387 0 7 7 26 15 42 23 44 47 144 52 217 4 63 3 68 -23 88 l-27 21 -979 0 -980
0 491 496 491 496 0 127 c0 127 0 127 -29 155 l-29 27 -978 0 -978 0 55 55
c113 117 364 270 514 315 22 6 47 15 56 19 9 5 45 14 80 20 35 6 75 17 88 23
16 8 93 12 230 12 177 -1 222 -4 316 -24 61 -13 115 -26 120 -30 6 -4 30 -13
55 -20 85 -23 211 -86 326 -163 38 -26 78 -56 88 -67 11 -12 25 -21 32 -21 14
0 234 -227 234 -242 0 -5 17 -32 38 -61 47 -64 144 -260 173 -347 52 -161 72
-309 66 -497 l-5 -152 27 -25 27 -26 260 2 259 3 3 379 c1 212 -2 384 -7 390
-5 6 -14 35 -20 65 -6 30 -15 59 -20 65 -4 6 -16 40 -26 76 -10 36 -22 70 -26
75 -4 6 -33 62 -65 125 -32 63 -70 134 -86 157 -15 23 -28 45 -28 49 0 4 -27
40 -60 81 -33 40 -60 76 -60 80 0 14 -194 207 -275 275 -102 85 -161 126 -260
185 -44 27 -89 53 -100 60 -56 34 -259 117 -345 142 -41 12 -88 27 -105 34
-21 8 -169 12 -500 14 -401 2 -477 0 -520 -13z"/>
</g>
</svg>
